<svg xmlns="http://www.w3.org/2000/svg" xmlns:xlink="http://www.w3.org/1999/xlink" style="enable-background:new 0 0 64 64" id="Layer_1" width="64" height="64" x="0" y="0" version="1.1" viewBox="0 0 64 64" xml:space="preserve"><linearGradient id="SVGID_1__59903" x1="21.5" x2="21.5" y1="-960.042" y2="-962" gradientTransform="matrix(1 0 0 -1 0 -942)" gradientUnits="userSpaceOnUse" spreadMethod="reflect"><stop offset="0" style="stop-color:#6dc7ff"/><stop offset="1" style="stop-color:#e6abff"/></linearGradient><rect style="fill:url(#SVGID_1__59903)" width="13" height="2" x="15" y="18"/><linearGradient id="SVGID_2__59903" x1="21.5" x2="21.5" y1="-964.979" y2="-967.042" gradientTransform="matrix(1 0 0 -1 0 -942)" gradientUnits="userSpaceOnUse" spreadMethod="reflect"><stop offset="0" style="stop-color:#6dc7ff"/><stop offset="1" style="stop-color:#e6abff"/></linearGradient><rect style="fill:url(#SVGID_2__59903)" width="13" height="2" x="15" y="23"/><linearGradient id="SVGID_3__59903" x1="21.5" x2="21.5" y1="-969.979" y2="-972.042" gradientTransform="matrix(1 0 0 -1 0 -942)" gradientUnits="userSpaceOnUse" spreadMethod="reflect"><stop offset="0" style="stop-color:#6dc7ff"/><stop offset="1" style="stop-color:#e6abff"/></linearGradient><rect style="fill:url(#SVGID_3__59903)" width="13" height="2" x="15" y="28"/><linearGradient id="SVGID_4__59903" x1="21.5" x2="21.5" y1="-974.938" y2="-977.112" gradientTransform="matrix(1 0 0 -1 0 -942)" gradientUnits="userSpaceOnUse" spreadMethod="reflect"><stop offset="0" style="stop-color:#6dc7ff"/><stop offset="1" style="stop-color:#e6abff"/></linearGradient><rect style="fill:url(#SVGID_4__59903)" width="13" height="2" x="15" y="33"/><linearGradient id="SVGID_5__59903" x1="42.5" x2="42.5" y1="-960.042" y2="-962" gradientTransform="matrix(1 0 0 -1 0 -942)" gradientUnits="userSpaceOnUse" spreadMethod="reflect"><stop offset="0" style="stop-color:#6dc7ff"/><stop offset="1" style="stop-color:#e6abff"/></linearGradient><rect style="fill:url(#SVGID_5__59903)" width="13" height="2" x="36" y="18"/><linearGradient id="SVGID_6__59903" x1="42.5" x2="42.5" y1="-964.979" y2="-967.042" gradientTransform="matrix(1 0 0 -1 0 -942)" gradientUnits="userSpaceOnUse" spreadMethod="reflect"><stop offset="0" style="stop-color:#6dc7ff"/><stop offset="1" style="stop-color:#e6abff"/></linearGradient><rect style="fill:url(#SVGID_6__59903)" width="13" height="2" x="36" y="23"/><linearGradient id="SVGID_7__59903" x1="42.5" x2="42.5" y1="-969.979" y2="-972.042" gradientTransform="matrix(1 0 0 -1 0 -942)" gradientUnits="userSpaceOnUse" spreadMethod="reflect"><stop offset="0" style="stop-color:#6dc7ff"/><stop offset="1" style="stop-color:#e6abff"/></linearGradient><rect style="fill:url(#SVGID_7__59903)" width="13" height="2" x="36" y="28"/><linearGradient id="SVGID_8__59903" x1="42.5" x2="42.5" y1="-974.938" y2="-977.112" gradientTransform="matrix(1 0 0 -1 0 -942)" gradientUnits="userSpaceOnUse" spreadMethod="reflect"><stop offset="0" style="stop-color:#6dc7ff"/><stop offset="1" style="stop-color:#e6abff"/></linearGradient><rect style="fill:url(#SVGID_8__59903)" width="13" height="2" x="36" y="33"/><linearGradient id="SVGID_9__59903" x1="42.5" x2="42.5" y1="-979.979" y2="-982.042" gradientTransform="matrix(1 0 0 -1 0 -942)" gradientUnits="userSpaceOnUse" spreadMethod="reflect"><stop offset="0" style="stop-color:#6dc7ff"/><stop offset="1" style="stop-color:#e6abff"/></linearGradient><rect style="fill:url(#SVGID_9__59903)" width="13" height="2" x="36" y="38"/><linearGradient id="SVGID_10__59903" x1="42.5" x2="42.5" y1="-984.938" y2="-987.112" gradientTransform="matrix(1 0 0 -1 0 -942)" gradientUnits="userSpaceOnUse" spreadMethod="reflect"><stop offset="0" style="stop-color:#6dc7ff"/><stop offset="1" style="stop-color:#e6abff"/></linearGradient><rect style="fill:url(#SVGID_10__59903)" width="13" height="2" x="36" y="43"/><linearGradient id="SVGID_11__59903" x1="19.532" x2="19.532" y1="7" y2="57" gradientUnits="userSpaceOnUse" spreadMethod="reflect"><stop offset="0" style="stop-color:#1a6dff"/><stop offset="1" style="stop-color:#c822ff"/></linearGradient><path style="fill:none;stroke:url(#SVGID_11__59903);stroke-width:2;stroke-miterlimit:10" d="M29,56H13c-1.105,0-2-0.895-2-2V10 c0-1.105,0.895-2,2-2h16.063"/><linearGradient id="SVGID_12__59903" x1="44.5" x2="44.5" y1="7" y2="57" gradientUnits="userSpaceOnUse" spreadMethod="reflect"><stop offset="0" style="stop-color:#1a6dff"/><stop offset="1" style="stop-color:#c822ff"/></linearGradient><path style="fill:none;stroke:url(#SVGID_12__59903);stroke-width:2;stroke-miterlimit:10" d="M35,8h16c1.105,0,2,0.895,2,2v44 c0,1.105-0.895,2-2,2H35"/><linearGradient id="SVGID_13__59903" x1="32" x2="32" y1="6" y2="57.876" gradientUnits="userSpaceOnUse" spreadMethod="reflect"><stop offset="0" style="stop-color:#1a6dff"/><stop offset="1" style="stop-color:#c822ff"/></linearGradient><rect style="fill:url(#SVGID_13__59903)" width="2" height="8" x="31" y="50"/><linearGradient id="SVGID_14__59903" x1="32" x2="32" y1="6" y2="57.876" gradientUnits="userSpaceOnUse" spreadMethod="reflect"><stop offset="0" style="stop-color:#1a6dff"/><stop offset="1" style="stop-color:#c822ff"/></linearGradient><rect style="fill:url(#SVGID_14__59903)" width="2" height="8" x="31" y="6"/><linearGradient id="SVGID_15__59903" x1="32" x2="32" y1="6" y2="57.876" gradientUnits="userSpaceOnUse" spreadMethod="reflect"><stop offset="0" style="stop-color:#1a6dff"/><stop offset="1" style="stop-color:#c822ff"/></linearGradient><rect style="fill:url(#SVGID_15__59903)" width="2" height="8" x="31" y="17"/><linearGradient id="SVGID_16__59903" x1="32" x2="32" y1="6" y2="57.876" gradientUnits="userSpaceOnUse" spreadMethod="reflect"><stop offset="0" style="stop-color:#1a6dff"/><stop offset="1" style="stop-color:#c822ff"/></linearGradient><rect style="fill:url(#SVGID_16__59903)" width="2" height="8" x="31" y="39"/><linearGradient id="SVGID_17__59903" x1="32" x2="32" y1="6" y2="57.876" gradientUnits="userSpaceOnUse" spreadMethod="reflect"><stop offset="0" style="stop-color:#1a6dff"/><stop offset="1" style="stop-color:#c822ff"/></linearGradient><rect style="fill:url(#SVGID_17__59903)" width="2" height="8" x="31" y="28"/></svg>