<svg xmlns="http://www.w3.org/2000/svg" xmlns:xlink="http://www.w3.org/1999/xlink" style="enable-background:new 0 0 64 64" id="Слой_1" width="64" height="64" x="0" y="0" version="1.1" viewBox="0 0 64 64" xml:space="preserve"><linearGradient id="SVGID_1__44830" x1="27" x2="27" y1="38.667" y2="45.934" gradientUnits="userSpaceOnUse" spreadMethod="reflect"><stop offset="0" style="stop-color:#6dc7ff"/><stop offset="1" style="stop-color:#e6abff"/></linearGradient><path style="fill:url(#SVGID_1__44830)" d="M35,45H19c-0.552,0-1-0.448-1-1v-4c0-0.552,0.448-1,1-1h16c0.552,0,1,0.448,1,1v4 C36,44.552,35.552,45,35,45z"/><linearGradient id="SVGID_2__44830" x1="32" x2="32" y1="5.333" y2="58.668" gradientUnits="userSpaceOnUse" spreadMethod="reflect"><stop offset="0" style="stop-color:#1a6dff"/><stop offset="1" style="stop-color:#c822ff"/></linearGradient><path style="fill:url(#SVGID_2__44830)" d="M47,6H17c-2.757,0-5,2.243-5,5v40v4c0,1.654,1.346,3,3,3h34c1.654,0,3-1.346,3-3v-4V11 C52,8.243,49.757,6,47,6z M17,8h30c1.654,0,3,1.346,3,3v3H14v-3C14,9.346,15.346,8,17,8z M49,56H15c-0.552,0-1-0.448-1-1v-1.185 C14.314,53.928,14.648,54,15,54h34c0.352,0,0.686-0.072,1-0.184V55C50,55.552,49.552,56,49,56z M49,52H15c-0.552,0-1-0.448-1-1V16 h36v35C50,51.552,49.552,52,49,52z"/><linearGradient id="SVGID_3__44830" x1="27" x2="27" y1="5.333" y2="58.668" gradientUnits="userSpaceOnUse" spreadMethod="reflect"><stop offset="0" style="stop-color:#1a6dff"/><stop offset="1" style="stop-color:#c822ff"/></linearGradient><rect style="fill:url(#SVGID_3__44830)" width="18" height="2" x="18" y="23"/><linearGradient id="SVGID_4__44830" x1="27" x2="27" y1="5.333" y2="58.668" gradientUnits="userSpaceOnUse" spreadMethod="reflect"><stop offset="0" style="stop-color:#1a6dff"/><stop offset="1" style="stop-color:#c822ff"/></linearGradient><rect style="fill:url(#SVGID_4__44830)" width="18" height="2" x="18" y="27"/><linearGradient id="SVGID_5__44830" x1="23" x2="23" y1="5.333" y2="58.668" gradientUnits="userSpaceOnUse" spreadMethod="reflect"><stop offset="0" style="stop-color:#1a6dff"/><stop offset="1" style="stop-color:#c822ff"/></linearGradient><rect style="fill:url(#SVGID_5__44830)" width="10" height="2" x="18" y="31"/><linearGradient id="SVGID_6__44830" x1="23" x2="23" y1="5.333" y2="58.668" gradientUnits="userSpaceOnUse" spreadMethod="reflect"><stop offset="0" style="stop-color:#1a6dff"/><stop offset="1" style="stop-color:#c822ff"/></linearGradient><rect style="fill:url(#SVGID_6__44830)" width="10" height="2" x="18" y="35"/><linearGradient id="SVGID_7__44830" x1="43" x2="43" y1="5.333" y2="58.668" gradientUnits="userSpaceOnUse" spreadMethod="reflect"><stop offset="0" style="stop-color:#1a6dff"/><stop offset="1" style="stop-color:#c822ff"/></linearGradient><path style="fill:url(#SVGID_7__44830)" d="M44,23h-2c-1.103,0-2,0.897-2,2v2c0,1.103,0.897,2,2,2h2c1.103,0,2-0.897,2-2v-2 C46,23.897,45.103,23,44,23z M42,27v-2h2l0.002,2H42z"/><linearGradient id="SVGID_8__44830" x1="43" x2="43" y1="5.333" y2="58.668" gradientUnits="userSpaceOnUse" spreadMethod="reflect"><stop offset="0" style="stop-color:#1a6dff"/><stop offset="1" style="stop-color:#c822ff"/></linearGradient><path style="fill:url(#SVGID_8__44830)" d="M44,31h-2c-1.103,0-2,0.897-2,2v2c0,1.103,0.897,2,2,2h2c1.103,0,2-0.897,2-2v-2 C46,31.897,45.103,31,44,31z M42,35v-2h2l0.002,2H42z"/><linearGradient id="SVGID_9__44830" x1="43" x2="43" y1="5.333" y2="58.668" gradientUnits="userSpaceOnUse" spreadMethod="reflect"><stop offset="0" style="stop-color:#1a6dff"/><stop offset="1" style="stop-color:#c822ff"/></linearGradient><path style="fill:url(#SVGID_9__44830)" d="M44,39h-2c-1.103,0-2,0.897-2,2v2c0,1.103,0.897,2,2,2h2c1.103,0,2-0.897,2-2v-2 C46,39.897,45.103,39,44,39z M42,43v-2h2l0.002,2H42z"/><linearGradient id="SVGID_10__44830" x1="33" x2="33" y1="5.333" y2="58.668" gradientUnits="userSpaceOnUse" spreadMethod="reflect"><stop offset="0" style="stop-color:#1a6dff"/><stop offset="1" style="stop-color:#c822ff"/></linearGradient><rect style="fill:url(#SVGID_10__44830)" width="6" height="2" x="30" y="31"/><linearGradient id="SVGID_11__44830" x1="33" x2="33" y1="5.333" y2="58.668" gradientUnits="userSpaceOnUse" spreadMethod="reflect"><stop offset="0" style="stop-color:#1a6dff"/><stop offset="1" style="stop-color:#c822ff"/></linearGradient><rect style="fill:url(#SVGID_11__44830)" width="6" height="2" x="30" y="35"/><linearGradient id="SVGID_12__44830" x1="19" x2="19" y1="9.125" y2="12.625" gradientUnits="userSpaceOnUse" spreadMethod="reflect"><stop offset="0" style="stop-color:#6dc7ff"/><stop offset="1" style="stop-color:#e6abff"/></linearGradient><path style="fill:url(#SVGID_12__44830)" d="M19,12L19,12c-0.552,0-1-0.448-1-1v0c0-0.552,0.448-1,1-1h0c0.552,0,1,0.448,1,1v0 C20,11.552,19.552,12,19,12z"/><linearGradient id="SVGID_13__44830" x1="23" x2="23" y1="9.125" y2="12.625" gradientUnits="userSpaceOnUse" spreadMethod="reflect"><stop offset="0" style="stop-color:#6dc7ff"/><stop offset="1" style="stop-color:#e6abff"/></linearGradient><path style="fill:url(#SVGID_13__44830)" d="M23,12L23,12c-0.552,0-1-0.448-1-1v0c0-0.552,0.448-1,1-1h0c0.552,0,1,0.448,1,1v0 C24,11.552,23.552,12,23,12z"/><linearGradient id="SVGID_14__44830" x1="27" x2="27" y1="9.125" y2="12.625" gradientUnits="userSpaceOnUse" spreadMethod="reflect"><stop offset="0" style="stop-color:#6dc7ff"/><stop offset="1" style="stop-color:#e6abff"/></linearGradient><path style="fill:url(#SVGID_14__44830)" d="M27,12L27,12c-0.552,0-1-0.448-1-1v0c0-0.552,0.448-1,1-1h0c0.552,0,1,0.448,1,1v0 C28,11.552,27.552,12,27,12z"/></svg>