<svg xmlns="http://www.w3.org/2000/svg" xmlns:xlink="http://www.w3.org/1999/xlink" style="enable-background:new 0 0 64 64" id="Layer_1" width="64" height="64" x="0" y="0" version="1.1" viewBox="0 0 64 64" xml:space="preserve"><linearGradient id="SVGID_1__56298" x1="32" x2="32" y1="11" y2="53" gradientUnits="userSpaceOnUse" spreadMethod="reflect"><stop offset="0" style="stop-color:#1a6dff"/><stop offset="1" style="stop-color:#c822ff"/></linearGradient><path style="fill:url(#SVGID_1__56298)" d="M57,11v2H7v-2H57z M7,33h50v-2H7V33z M21,23h36v-2H21V23z M21,43h36v-2H21V43z M7,53h50v-2H7 V53z"/><linearGradient id="SVGID_2__56298" x1="55" x2="55" y1="16" y2="48" gradientUnits="userSpaceOnUse" spreadMethod="reflect"><stop offset="0" style="stop-color:#6dc7ff"/><stop offset="1" style="stop-color:#e6abff"/></linearGradient><path style="fill:url(#SVGID_2__56298)" d="M57,16v2h-4v-2H57z M57,26v2h-4v-2H57z M57,36v2h-4v-2H57z M57,46v2h-4v-2H57z"/></svg>